<?xml version="1.0" encoding="UTF-8" standalone="no"?>
<!-- Created with Inkscape (http://www.inkscape.org/) -->

<svg
   xmlns:dc="http://purl.org/dc/elements/1.1/"
   xmlns:cc="http://creativecommons.org/ns#"
   xmlns:rdf="http://www.w3.org/1999/02/22-rdf-syntax-ns#"
   xmlns:svg="http://www.w3.org/2000/svg"
   xmlns="http://www.w3.org/2000/svg"
   xmlns:sodipodi="http://sodipodi.sourceforge.net/DTD/sodipodi-0.dtd"
   xmlns:inkscape="http://www.inkscape.org/namespaces/inkscape"
   width="456"
   height="74"
   viewBox="0 0 456 74.000001"
   id="svg2"
   version="1.1"
   inkscape:version="0.91 r13725"
   sodipodi:docname="ex-2-ua.svg"
   inkscape:export-filename="D:\EX.ua Logo Font SVG\EKS.ru.png"
   inkscape:export-xdpi="90"
   inkscape:export-ydpi="90">
  <defs
     id="defs4" />
  <sodipodi:namedview
     id="base"
     pagecolor="#ffffff"
     bordercolor="#666666"
     borderopacity="1.0"
     inkscape:pageopacity="0.0"
     inkscape:pageshadow="2"
     inkscape:zoom="1"
     inkscape:cx="231.05316"
     inkscape:cy="2.0907858"
     inkscape:document-units="px"
     inkscape:current-layer="layer1"
     showgrid="false"
     units="px"
     inkscape:object-paths="true"
     inkscape:snap-intersection-paths="true"
     inkscape:object-nodes="true"
     inkscape:snap-smooth-nodes="true"
     showguides="true"
     inkscape:guide-bbox="true"
     inkscape:window-width="1280"
     inkscape:window-height="961"
     inkscape:window-x="-4"
     inkscape:window-y="-4"
     inkscape:window-maximized="1" />
  <metadata
     id="metadata7">
    <rdf:RDF>
      <cc:Work
         rdf:about="">
        <dc:format>image/svg+xml</dc:format>
        <dc:type
           rdf:resource="http://purl.org/dc/dcmitype/StillImage" />
        <dc:title></dc:title>
      </cc:Work>
    </rdf:RDF>
  </metadata>
  <g
     inkscape:label="Layer 1"
     inkscape:groupmode="layer"
     id="layer1"
     transform="translate(0,-978.36216)">
    <rect
       style="opacity:1;fill:#898989;fill-opacity:1;stroke:none;stroke-width:2;stroke-linejoin:round;stroke-miterlimit:4;stroke-dasharray:none;stroke-opacity:0"
       id="rect4188"
       width="10"
       height="10"
       x="286"
       y="1042.3622" />
    <rect
       transform="matrix(0,1,-1,0,0,0)"
       style="opacity:1;fill:#898989;fill-opacity:1;stroke:none;stroke-width:2;stroke-linejoin:round;stroke-miterlimit:4;stroke-dasharray:none;stroke-opacity:0"
       id="rect4190"
       width="41"
       height="12"
       x="1001.3621"
       y="-324.99982" />
    <rect
       y="-372.99982"
       x="1001.3621"
       height="12"
       width="41"
       id="rect4192"
       style="opacity:1;fill:#898989;fill-opacity:1;stroke:none;stroke-width:2;stroke-linejoin:round;stroke-miterlimit:4;stroke-dasharray:none;stroke-opacity:0"
       transform="matrix(0,1,-1,0,0,0)" />
    <rect
       transform="scale(-1,-1)"
       style="opacity:1;fill:#898989;fill-opacity:1;stroke:none;stroke-width:2;stroke-linejoin:round;stroke-miterlimit:4;stroke-dasharray:none;stroke-opacity:0"
       id="rect4194"
       width="35.999817"
       height="10"
       x="-360.99982"
       y="-1052.3622" />
    <path
       style="opacity:1;fill:#898989;fill-opacity:1;stroke:none;stroke-width:2;stroke-linejoin:round;stroke-miterlimit:4;stroke-dasharray:none;stroke-opacity:0"
       d="m 313,1042.3622 0,1 c 0,4.9705 3.58172,9 8,9 l 4,0 0,-10 z"
       id="path4198"
       inkscape:connector-curvature="0"
       sodipodi:nodetypes="cssccc" />
    <path
       sodipodi:nodetypes="cssccc"
       inkscape:connector-curvature="0"
       id="path4206"
       d="m 373,1042.3622 0,1 c 0,4.9705 -3.58172,9 -8,9 l -4,0 0,-10 z"
       style="opacity:1;fill:#898989;fill-opacity:1;stroke:none;stroke-width:2;stroke-linejoin:round;stroke-miterlimit:4;stroke-dasharray:none;stroke-opacity:0" />
    <path
       style="opacity:1;fill:#898989;fill-opacity:1;fill-rule:evenodd;stroke:none;stroke-width:1px;stroke-linecap:butt;stroke-linejoin:miter;stroke-opacity:1"
       d="M 425.99959,1001.3627 456,1052.3622 l -13,0 -23.50035,-39.9996 -22.49978,39.9996 -12.99987,0 28.99972,-51 z"
       id="path4208"
       inkscape:connector-curvature="0"
       sodipodi:nodetypes="cccccccc" />
    <path
       style="opacity:1;fill:#898989;fill-opacity:1;stroke:none;stroke-width:2;stroke-linejoin:round;stroke-miterlimit:4;stroke-dasharray:none;stroke-opacity:0"
       d="m 402,1032.3622 36,0 0,10 -36,0 z"
       id="rect4210"
       inkscape:connector-curvature="0"
       sodipodi:nodetypes="ccccc" />
    <rect
       y="978.36218"
       x="15"
       height="13"
       width="57"
       id="rect4213"
       style="opacity:1;fill:#898989;fill-opacity:1;stroke:none;stroke-width:2;stroke-linejoin:round;stroke-miterlimit:4;stroke-dasharray:none;stroke-opacity:0" />
    <rect
       transform="matrix(0,1,-1,0,0,0)"
       style="opacity:1;fill:#898989;fill-opacity:1;stroke:none;stroke-width:2;stroke-linejoin:round;stroke-miterlimit:4;stroke-dasharray:none;stroke-opacity:0"
       id="rect4215"
       width="74"
       height="15"
       x="978.36218"
       y="-15" />
    <rect
       y="1007.3622"
       x="22"
       height="13"
       width="27"
       id="rect4217"
       style="opacity:1;fill:#898989;fill-opacity:1;stroke:none;stroke-width:2;stroke-linejoin:round;stroke-miterlimit:4;stroke-dasharray:none;stroke-opacity:0" />
    <rect
       style="opacity:1;fill:#898989;fill-opacity:1;stroke:none;stroke-width:2;stroke-linejoin:round;stroke-miterlimit:4;stroke-dasharray:none;stroke-opacity:0"
       id="rect4154"
       width="57"
       height="13"
       x="15"
       y="1039.3622" />
    <path
       sodipodi:nodetypes="cccccccc"
       inkscape:connector-curvature="0"
       id="path4156"
       d="m 99,1052.3622 77,-74.00004 -20,0 -57,54.00004 0,-54.00004 -15,0 0,74.00004 z"
       style="opacity:1;fill:#898989;fill-opacity:1;fill-rule:evenodd;stroke:none;stroke-width:1px;stroke-linecap:butt;stroke-linejoin:miter;stroke-opacity:1" />
    <path
       sodipodi:nodetypes="ccccc"
       inkscape:connector-curvature="0"
       id="path4158"
       d="m 154,1052.3622 -18.25,-20.75 11.25,-11.25 28,32 z"
       style="opacity:1;fill:#898989;fill-opacity:1;fill-rule:evenodd;stroke:none;stroke-width:1px;stroke-linecap:butt;stroke-linejoin:miter;stroke-opacity:1" />
    <path
       style="opacity:1;fill:#898989;fill-opacity:1;stroke:none;stroke-width:2;stroke-linejoin:round;stroke-miterlimit:4;stroke-dasharray:none;stroke-opacity:0"
       d="m 188.00008,991.3622 0,-1.3 c 0,-6.46165 4.47716,-11.69999 10,-11.69999 l 5,0 0,12.99999 z"
       id="path4191"
       inkscape:connector-curvature="0"
       sodipodi:nodetypes="cssccc" />
    <rect
       transform="scale(-1,-1)"
       style="opacity:1;fill:#898989;fill-opacity:1;stroke:none;stroke-width:2;stroke-linejoin:round;stroke-miterlimit:4;stroke-dasharray:none;stroke-opacity:0"
       id="rect4193"
       width="66.999939"
       height="12.999985"
       x="-270"
       y="-991.36218" />
    <path
       sodipodi:nodetypes="cssccc"
       inkscape:connector-curvature="0"
       id="path4195"
       d="m 270,1039.3622 0,1.3 c 0,6.4616 -4.47716,11.7 -10,11.7 l -5,0 0,-13 z"
       style="opacity:1;fill:#898989;fill-opacity:1;stroke:none;stroke-width:2;stroke-linejoin:round;stroke-miterlimit:4;stroke-dasharray:none;stroke-opacity:0" />
    <rect
       y="1039.3622"
       x="188.00008"
       height="12.999985"
       width="66.999939"
       id="rect4197"
       style="opacity:1;fill:#898989;fill-opacity:1;stroke:none;stroke-width:2;stroke-linejoin:round;stroke-miterlimit:4;stroke-dasharray:none;stroke-opacity:0" />
    <rect
       transform="matrix(0,1,-1,0,0,0)"
       style="opacity:1;fill:#898989;fill-opacity:1;stroke:none;stroke-width:2;stroke-linejoin:round;stroke-miterlimit:4;stroke-dasharray:none;stroke-opacity:0"
       id="rect4199"
       width="18.999922"
       height="15"
       x="1020.3622"
       y="-270" />
    <path
       style="opacity:1;fill:#898989;fill-opacity:1;stroke:none;stroke-width:2;stroke-linejoin:round;stroke-miterlimit:4;stroke-dasharray:none;stroke-opacity:0"
       d="m 270,1020.3622 0,-1.3 c 0,-6.4616 -4.47716,-11.7 -10,-11.7 l -5,0 0,13 z"
       id="path4201"
       inkscape:connector-curvature="0"
       sodipodi:nodetypes="cssccc" />
    <rect
       y="188"
       x="-1007.3622"
       height="15"
       width="16.000017"
       id="rect4203"
       style="opacity:1;fill:#898989;fill-opacity:1;stroke:none;stroke-width:2;stroke-linejoin:round;stroke-miterlimit:4;stroke-dasharray:none;stroke-opacity:0"
       transform="matrix(0,-1,1,0,0,0)" />
    <path
       sodipodi:nodetypes="cssccc"
       inkscape:connector-curvature="0"
       id="path4205"
       d="m 188,1007.3622 0,1.3 c 0,6.4616 4.47716,11.7 10,11.7 l 5,0 0,-13 z"
       style="opacity:1;fill:#898989;fill-opacity:1;stroke:none;stroke-width:2;stroke-linejoin:round;stroke-miterlimit:4;stroke-dasharray:none;stroke-opacity:0" />
    <rect
       transform="scale(-1,-1)"
       style="opacity:1;fill:#898989;fill-opacity:1;stroke:none;stroke-width:2;stroke-linejoin:round;stroke-miterlimit:4;stroke-dasharray:none;stroke-opacity:0"
       id="rect4207"
       width="51.999935"
       height="12.999985"
       x="-254.99994"
       y="-1020.3622" />
    <g
       style="font-style:normal;font-variant:normal;font-weight:500;font-stretch:normal;font-size:98.83721161px;line-height:125%;font-family:'Bank Gothic';-inkscape-font-specification:'Bank Gothic Medium';letter-spacing:0px;word-spacing:0px;fill:#898989;fill-opacity:1;stroke:none;stroke-width:1px;stroke-linecap:butt;stroke-linejoin:miter;stroke-opacity:1;opacity:1"
       id="text4216"
       transform="matrix(0.9999986,0,0,1,1.2202527,59.249903)">
      <path
         d="m 332.28018,1034.1122 23,19 16.5,0 -23,-19 z"
         id="path4221"
         inkscape:connector-curvature="0"
         sodipodi:nodetypes="ccccc"
         style="opacity:1;fill:#898989;fill-opacity:1;stroke:none" />
    </g>
    <rect
       y="-324.99979"
       x="1061.3621"
       height="11.999983"
       width="51"
       id="rect4223"
       style="opacity:1;fill:#898989;fill-opacity:1;stroke:none;stroke-width:2;stroke-linejoin:round;stroke-miterlimit:4;stroke-dasharray:none;stroke-opacity:0"
       transform="matrix(0,1,-1,0,0,0)" />
    <rect
       y="-1071.3621"
       x="-360.99994"
       height="10"
       width="35.99995"
       id="rect4225"
       style="opacity:1;fill:#898989;fill-opacity:1;stroke:none;stroke-width:2;stroke-linejoin:round;stroke-miterlimit:4;stroke-dasharray:none;stroke-opacity:0"
       transform="scale(-1,-1)" />
    <path
       style="opacity:1;fill:#898989;fill-opacity:1;stroke:none;stroke-width:2;stroke-linejoin:round;stroke-miterlimit:4;stroke-dasharray:none;stroke-opacity:0"
       d="m 372.99992,1071.3622 0,-1 c 0,-4.9705 -3.58172,-9 -7.99999,-9 l -4,0 0,10 z"
       id="path4227"
       inkscape:connector-curvature="0"
       sodipodi:nodetypes="cssccc" />
    <path
       sodipodi:nodetypes="cssccc"
       inkscape:connector-curvature="0"
       id="path4229"
       d="m 372.99992,1083.3622 0,1 c 0,4.9705 -3.58172,9 -7.99999,9 l -4,0 0,-10 z"
       style="opacity:1;fill:#898989;fill-opacity:1;stroke:none;stroke-width:2;stroke-linejoin:round;stroke-miterlimit:4;stroke-dasharray:none;stroke-opacity:0" />
    <rect
       transform="matrix(0,1,-1,0,0,0)"
       style="opacity:1;fill:#898989;fill-opacity:1;stroke:none;stroke-width:2;stroke-linejoin:round;stroke-miterlimit:4;stroke-dasharray:none;stroke-opacity:0"
       id="rect4231"
       width="11.999983"
       height="11.999983"
       x="1071.3621"
       y="-372.99991" />
    <rect
       transform="scale(-1,-1)"
       style="opacity:1;fill:#898989;fill-opacity:1;stroke:none;stroke-width:2;stroke-linejoin:round;stroke-miterlimit:4;stroke-dasharray:none;stroke-opacity:0"
       id="rect4233"
       width="35.99995"
       height="10"
       x="-360.99994"
       y="-1093.3622" />
    <rect
       y="-395.99969"
       x="1061.3621"
       height="11.999983"
       width="41"
       id="rect4243"
       style="opacity:1;fill:#898989;fill-opacity:1;stroke:none;stroke-width:2;stroke-linejoin:round;stroke-miterlimit:4;stroke-dasharray:none;stroke-opacity:0"
       transform="matrix(0,1,-1,0,0,0)" />
    <rect
       transform="matrix(0,1,-1,0,0,0)"
       style="opacity:1;fill:#898989;fill-opacity:1;stroke:none;stroke-width:2;stroke-linejoin:round;stroke-miterlimit:4;stroke-dasharray:none;stroke-opacity:0"
       id="rect4245"
       width="41"
       height="11.999983"
       x="1061.3621"
       y="-443.99963" />
    <rect
       y="-1112.3622"
       x="-431.99966"
       height="10"
       width="35.999767"
       id="rect4247"
       style="opacity:1;fill:#898989;fill-opacity:1;stroke:none;stroke-width:2;stroke-linejoin:round;stroke-miterlimit:4;stroke-dasharray:none;stroke-opacity:0"
       transform="scale(-1,-1)" />
    <path
       sodipodi:nodetypes="cssccc"
       inkscape:connector-curvature="0"
       id="path4249"
       d="m 383.9999,1102.3622 0,1 c 0,4.9705 3.58172,9 7.99999,9 l 3.99999,0 0,-10 z"
       style="opacity:1;fill:#898989;fill-opacity:1;stroke:none;stroke-width:2;stroke-linejoin:round;stroke-miterlimit:4;stroke-dasharray:none;stroke-opacity:0" />
    <path
       style="opacity:1;fill:#898989;fill-opacity:1;stroke:none;stroke-width:2;stroke-linejoin:round;stroke-miterlimit:4;stroke-dasharray:none;stroke-opacity:0"
       d="m 443.99982,1102.3622 0,1 c 0,4.9705 -3.58172,9 -7.99999,9 l -4,0 0,-10 z"
       id="path4251"
       inkscape:connector-curvature="0"
       sodipodi:nodetypes="cssccc" />
  </g>
</svg>
