<?xml version="1.0" encoding="UTF-8" standalone="no"?>
<!-- Generator: Adobe Illustrator 20.0.0, SVG Export Plug-In . SVG Version: 6.00 Build 0)  -->

<svg
   xmlns:dc="http://purl.org/dc/elements/1.1/"
   xmlns:cc="http://creativecommons.org/ns#"
   xmlns:rdf="http://www.w3.org/1999/02/22-rdf-syntax-ns#"
   xmlns:svg="http://www.w3.org/2000/svg"
   xmlns="http://www.w3.org/2000/svg"
   xmlns:sodipodi="http://sodipodi.sourceforge.net/DTD/sodipodi-0.dtd"
   xmlns:inkscape="http://www.inkscape.org/namespaces/inkscape"
   version="1.1"
   id="Layer_1"
   x="0px"
   y="0px"
   viewBox="0 0 225.00001 256.00001"
   xml:space="preserve"
   sodipodi:docname="discord-icon.svg"
   width="225"
   height="256"
   inkscape:version="0.92.0 r15299"><metadata
   id="metadata13"><rdf:RDF><cc:Work
       rdf:about=""><dc:format>image/svg+xml</dc:format><dc:type
         rdf:resource="http://purl.org/dc/dcmitype/StillImage" /><dc:title></dc:title></cc:Work></rdf:RDF></metadata><defs
   id="defs11" /><sodipodi:namedview
   pagecolor="#ffffff"
   bordercolor="#666666"
   borderopacity="1"
   objecttolerance="10"
   gridtolerance="10"
   guidetolerance="10"
   inkscape:pageopacity="0"
   inkscape:pageshadow="2"
   inkscape:window-width="1074"
   inkscape:window-height="777"
   id="namedview9"
   showgrid="false"
   inkscape:zoom="2"
   inkscape:cx="125.21763"
   inkscape:cy="120.70768"
   inkscape:window-x="78"
   inkscape:window-y="57"
   inkscape:window-maximized="0"
   inkscape:current-layer="Layer_1" />
<style
   type="text/css"
   id="style2">
	.st0{fill:#7289DA;}
</style>
<g
   id="g6"
   transform="matrix(3.3639947,0,0,3.3639947,-14.4908,1.665e-6)">
	<path
   class="st0"
   d="m 63.2,0 h -51 C 7.9,0 4.4,3.5 4.4,7.8 v 51.5 c 0,4.3 3.5,7.8 7.8,7.8 h 43.2 l -2,-7 4.9,4.5 4.6,4.3 8.2,7.2 V 7.8 C 71,3.5 67.5,0 63.2,0 Z"
   id="path4"
   inkscape:connector-curvature="0"
   style="fill:#7289da"
   sodipodi:nodetypes="sssssccccccs" />
</g>
<path
   style="opacity:1;fill:#ffffff;fill-opacity:1"
   d="m 61.886652,164.55646 c -7.5937,-2.40813 -17.309552,-8.61884 -20.950382,-13.39221 -2.733007,-3.58316 -2.767243,-3.80112 -2.098244,-13.35789 1.305614,-18.65094 8.627512,-46.118101 15.908439,-59.67846 2.999115,-5.585702 3.739826,-6.235352 11.701785,-10.263194 9.001863,-4.553914 19.249815,-7.609072 23.77439,-7.087711 2.172549,0.250341 1.000851,0.98474 -5.77439,3.619285 -9.098002,3.537748 -20.764546,10.001227 -23.073185,12.782966 -1.180755,1.422724 -0.760983,1.368661 2.581577,-0.332482 6.587503,-3.352607 20.504724,-7.918962 28.491608,-9.348333 9.48927,-1.698244 31.63985,-1.729929 39.5,-0.0565 8.77543,1.868291 18.20727,5.03259 24.75,8.303407 3.1625,1.580985 5.75,2.464951 5.75,1.964369 0,-2.057504 -20.07935,-12.845533 -27.26624,-14.649327 -4.91278,-1.233028 -3.09754,-2.775232 2.40707,-2.04502 7.5487,1.001371 17.24517,4.433162 24.22164,8.572563 5.32456,3.159266 6.56232,4.493436 9.34447,10.072386 8.12661,16.295998 15.29306,45.299673 15.29306,61.893293 v 7.76378 l -4.86721,4.55271 c -5.66958,5.30322 -12.76725,9.13024 -20.82609,11.2293 -9.6489,2.51322 -11.64876,2.13119 -15.88102,-3.03373 -2.03952,-2.48896 -3.53215,-4.65232 -3.31695,-4.80747 0.2152,-0.15514 3.45093,-1.75782 7.19053,-3.56151 6.35773,-3.06648 15.64902,-10.49067 14.52973,-11.60996 -0.27529,-0.27529 -2.93694,0.85002 -5.91476,2.50071 -7.8401,4.34595 -22.54356,8.83542 -33.44726,10.21259 -16.96085,2.1422 -37.297919,-1.58309 -53.71697,-9.83973 -3.7125,-1.8669 -6.75,-3.02699 -6.75,-2.57796 0,2.47105 11.4474,10.80712 18.165806,13.22845 l 3.665805,1.32117 -4.072342,4.82955 c -3.801904,4.50884 -4.377388,4.82583 -8.665806,4.77339 -2.526405,-0.0309 -7.321182,-0.92118 -10.655061,-1.97843 z m 34.371774,-30.99103 c 5.817634,-3.54691 7.851504,-12.2095 4.438274,-18.90328 -2.527399,-4.95653 -6.352995,-7.40442 -11.571732,-7.40442 -5.794073,0 -10.018824,3.0438 -12.21822,8.80283 -2.362239,6.18544 -1.307522,10.91677 3.506799,15.7311 3.241479,3.24148 4.440782,3.79886 8.167056,3.79567 2.614877,-0.002 5.696046,-0.81364 7.677823,-2.0219 z m 46.306774,0.29748 c 3.29845,-1.94844 6.88305,-8.52463 6.88305,-12.62741 0,-3.83953 -3.3797,-10.00798 -6.66158,-12.15835 -3.75601,-2.46104 -10.65179,-2.37887 -14.12671,0.16833 -5.8368,4.27852 -7.77237,12.7615 -4.3684,19.14531 3.56667,6.68894 11.95924,9.20213 18.27364,5.47212 z"
   id="path3679"
   inkscape:connector-curvature="0" /></svg>